# xmcd CD database file
#
# Track frame offsets:
#	182
#	17587
#	35955
#	57712
#	74947
#	92465
#	109655
#	134680
#	157592
#	173625
#	193407
#	209982
#	230170
#	251892
#
# Disc length: 3576 seconds
#
# Revision: 0
# Processed by: cddbd v1.5.2PL0 Copyright (c) Steve Scherf et al.
# Submitted via: CDex 1.70beta2
#
DISCID=df0df60e
DTITLE=Bonnie Raitt - Sampler
DYEAR=1900
DGENRE=Blues
TTITLE0=Thing Called Love
TTITLE1=Love Letter
TTITLE2=Have  A Heart
TTITLE3=Too Soon To Tell
TTITLE4=Nick Of Time
TTITLE5=Something to Talk About
TTITLE6=I Can't Make You Love Me
TTITLE7=Not The Only One
TTITLE8=Good Man, Good Woman 
TTITLE9=Come To Me
TTITLE10=Love Sneakin' Up On You
TTITLE11=You
TTITLE12=Longing In Their Hearts
TTITLE13=I Sho Do
EXTD=
EXTT0=
EXTT1=
EXTT2=
EXTT3=
EXTT4=
EXTT5=
EXTT6=
EXTT7=
EXTT8=
EXTT9=
EXTT10=
EXTT11=
EXTT12=
EXTT13=
PLAYORDER=
